<?xml version="1.0" encoding="UTF-8" standalone="no"?><!DOCTYPE svg PUBLIC "-//W3C//DTD SVG 1.1//EN" "http://www.w3.org/Graphics/SVG/1.1/DTD/svg11.dtd"><!-- Generated by graphviz version 2.40.1 (20161225.0304)
 --><!-- Title: G Pages: 1 --><svg xmlns="http://www.w3.org/2000/svg" xmlns:xlink="http://www.w3.org/1999/xlink" width="449pt" height="228pt" viewBox="0.00 0.00 449.43 227.75">
<g id="graph0" class="graph" transform="scale(1 1) rotate(0) translate(4 223.7507)">
<title>G</title>
<polygon fill="#ffffff" stroke="transparent" points="-4,4 -4,-223.7507 445.4273,-223.7507 445.4273,4 -4,4"/>
<!-- p0 -->
<g id="node1" class="node">
<title>p0</title>
<ellipse fill="none" stroke="#a020f0" cx="251.4481" cy="-195.3026" rx="24.3963" ry="24.3963"/>
<text text-anchor="middle" x="251.4481" y="-191.1026" font-family="Times,serif" font-size="14.00" fill="#000000">CA</text>
</g>
<!-- p1_1 -->
<g id="node2" class="node">
<title>p1_1</title>
<ellipse fill="none" stroke="#a020f0" cx="121.4481" cy="-110.4065" rx="24.3963" ry="24.3963"/>
<text text-anchor="middle" x="121.4481" y="-106.2065" font-family="Times,serif" font-size="14.00" fill="#000000">CA</text>
</g>
<!-- p0&#45;&gt;p1_1 -->
<g id="edge1" class="edge">
<title>p0-&gt;p1_1</title>
<path fill="none" stroke="#a020f0" d="M230.8492,-181.8506C206.507,-165.954 166.2507,-139.6647 141.9506,-123.7956"/>
</g>
<!-- p1_2 -->
<g id="node3" class="node">
<title>p1_2</title>
<ellipse fill="none" stroke="#a020f0" cx="251.4481" cy="-110.4065" rx="22.6911" ry="22.6911"/>
<text text-anchor="middle" x="251.4481" y="-106.2065" font-family="Times,serif" font-size="14.00" fill="#000000">CS</text>
</g>
<!-- p0&#45;&gt;p1_2 -->
<g id="edge2" class="edge">
<title>p0-&gt;p1_2</title>
<path fill="none" stroke="#a020f0" d="M251.4481,-170.7471C251.4481,-158.9941 251.4481,-145.0011 251.4481,-133.4506"/>
</g>
<!-- p1_3 -->
<g id="node4" class="node">
<title>p1_3</title>
<ellipse fill="none" stroke="#000000" cx="349.4481" cy="-110.4065" rx="23.253" ry="23.253"/>
<text text-anchor="middle" x="349.4481" y="-106.2065" font-family="Times,serif" font-size="14.00" fill="#000000">NS</text>
</g>
<!-- p0&#45;&gt;p1_3 -->
<g id="edge3" class="edge">
<title>p0-&gt;p1_3</title>
<path fill="none" stroke="#000000" d="M270.3435,-178.9338C288.0308,-163.6115 314.2623,-140.8875 331.6015,-125.8667"/>
</g>
<!-- p1_1_1 -->
<g id="node5" class="node">
<title>p1_1_1</title>
<ellipse fill="none" stroke="#a020f0" cx="24.4481" cy="-24.9792" rx="24.3963" ry="24.3963"/>
<text text-anchor="middle" x="24.4481" y="-20.7792" font-family="Times,serif" font-size="14.00" fill="#000000">CA</text>
</g>
<!-- p1_1&#45;&gt;p1_1_1 -->
<g id="edge4" class="edge">
<title>p1_1-&gt;p1_1_1</title>
<path fill="none" stroke="#a020f0" d="M102.7455,-93.9352C85.569,-78.808 60.2516,-56.5111 43.0932,-41.3999"/>
</g>
<!-- p1_1_2 -->
<g id="node6" class="node">
<title>p1_1_2</title>
<ellipse fill="none" stroke="#a020f0" cx="89.4481" cy="-24.9792" rx="22.6911" ry="22.6911"/>
<text text-anchor="middle" x="89.4481" y="-20.7792" font-family="Times,serif" font-size="14.00" fill="#000000">CS</text>
</g>
<!-- p1_1&#45;&gt;p1_1_2 -->
<g id="edge5" class="edge">
<title>p1_1-&gt;p1_1_2</title>
<path fill="none" stroke="#a020f0" d="M112.7039,-87.0631C107.9666,-74.4164 102.1527,-58.8954 97.523,-46.5361"/>
</g>
<!-- p1_1_3 -->
<g id="node7" class="node">
<title>p1_1_3</title>
<ellipse fill="none" stroke="#000000" cx="153.4481" cy="-24.9792" rx="23.253" ry="23.253"/>
<text text-anchor="middle" x="153.4481" y="-20.7792" font-family="Times,serif" font-size="14.00" fill="#000000">NS</text>
</g>
<!-- p1_1&#45;&gt;p1_1_3 -->
<g id="edge6" class="edge">
<title>p1_1-&gt;p1_1_3</title>
<path fill="none" stroke="#000000" d="M130.1922,-87.0631C134.8555,-74.614 140.5621,-59.3797 145.1552,-47.1177"/>
</g>
<!-- p1_2_1 -->
<g id="node8" class="node">
<title>p1_2_1</title>
<ellipse fill="none" stroke="#a020f0" cx="219.4481" cy="-24.9792" rx="24.3963" ry="24.3963"/>
<text text-anchor="middle" x="219.4481" y="-20.7792" font-family="Times,serif" font-size="14.00" fill="#000000">CA</text>
</g>
<!-- p1_2&#45;&gt;p1_2_1 -->
<g id="edge7" class="edge">
<title>p1_2-&gt;p1_2_1</title>
<path fill="none" stroke="#a020f0" d="M243.3731,-88.8496C238.7073,-76.3937 232.8386,-60.7266 228.0814,-48.0267"/>
<text text-anchor="middle" x="231.1009" y="-72.7297" font-family="Times,serif" font-size="14.00" fill="#000000">!!</text>
</g>
<!-- p1_2_2 -->
<g id="node9" class="node">
<title>p1_2_2</title>
<ellipse fill="none" stroke="#a020f0" cx="284.4481" cy="-24.9792" rx="22.6911" ry="22.6911"/>
<text text-anchor="middle" x="284.4481" y="-20.7792" font-family="Times,serif" font-size="14.00" fill="#000000">CS</text>
</g>
<!-- p1_2&#45;&gt;p1_2_2 -->
<g id="edge8" class="edge">
<title>p1_2-&gt;p1_2_2</title>
<path fill="none" stroke="#a020f0" d="M259.7754,-88.8496C264.7779,-75.8994 271.1214,-59.4781 276.1234,-46.5292"/>
</g>
<!-- p1_3_1 -->
<g id="node10" class="node">
<title>p1_3_1</title>
<ellipse fill="none" stroke="#000000" cx="349.4481" cy="-24.9792" rx="24.3963" ry="24.3963"/>
<text text-anchor="middle" x="349.4481" y="-20.7792" font-family="Times,serif" font-size="14.00" fill="#000000">CA</text>
</g>
<!-- p1_3&#45;&gt;p1_3_1 -->
<g id="edge9" class="edge">
<title>p1_3-&gt;p1_3_1</title>
<path fill="none" stroke="#000000" d="M349.4481,-86.6102C349.4481,-75.0577 349.4481,-61.1916 349.4481,-49.5397"/>
</g>
<!-- p1_3_2 -->
<g id="node11" class="node">
<title>p1_3_2</title>
<ellipse fill="none" stroke="#000000" cx="416.4481" cy="-24.9792" rx="24.9584" ry="24.9584"/>
<text text-anchor="middle" x="416.4481" y="-20.7792" font-family="Times,serif" font-size="14.00" fill="#000000">NA</text>
</g>
<!-- p1_3&#45;&gt;p1_3_2 -->
<g id="edge10" class="edge">
<title>p1_3-&gt;p1_3_2</title>
<path fill="none" stroke="#000000" d="M363.9861,-91.87C374.9163,-77.9336 389.8622,-58.877 401.0059,-44.6684"/>
</g>
</g>
</svg>