<?xml version="1.0" encoding="UTF-8" standalone="no"?><!DOCTYPE svg PUBLIC "-//W3C//DTD SVG 1.1//EN" "http://www.w3.org/Graphics/SVG/1.1/DTD/svg11.dtd"><!-- Generated by graphviz version 2.40.1 (20161225.0304)
 --><!-- Title: G Pages: 1 --><svg xmlns="http://www.w3.org/2000/svg" xmlns:xlink="http://www.w3.org/1999/xlink" width="449pt" height="228pt" viewBox="0.00 0.00 449.43 227.75">
<g id="graph0" class="graph" transform="scale(1 1) rotate(0) translate(4 223.7507)">
<title>G</title>
<polygon fill="#ffffff" stroke="transparent" points="-4,4 -4,-223.7507 445.4273,-223.7507 445.4273,4 -4,4"/>
<!-- p0 -->
<g id="node1" class="node">
<title>p0</title>
<ellipse fill="none" stroke="#000000" cx="251.4481" cy="-195.3026" rx="24.3963" ry="24.3963"/>
<text text-anchor="middle" x="251.4481" y="-191.1026" font-family="Times,serif" font-size="14.00" fill="#000000">CA</text>
</g>
<!-- p1_1 -->
<g id="node2" class="node">
<title>p1_1</title>
<ellipse fill="none" stroke="#000000" cx="121.4481" cy="-110.4065" rx="24.3963" ry="24.3963"/>
<text text-anchor="middle" x="121.4481" y="-106.2065" font-family="Times,serif" font-size="14.00" fill="#000000">CA</text>
</g>
<!-- p0&#45;&gt;p1_1 -->
<g id="edge1" class="edge">
<title>p0-&gt;p1_1</title>
<path fill="none" stroke="#000000" d="M230.8492,-181.8506C209.1694,-167.6927 174.8664,-145.2912 150.455,-129.3494"/>
<polygon fill="#000000" stroke="#000000" points="152.2371,-126.333 141.9506,-123.7956 148.4096,-132.1939 152.2371,-126.333"/>
</g>
<!-- p1_2 -->
<g id="node3" class="node">
<title>p1_2</title>
<ellipse fill="none" stroke="#000000" cx="251.4481" cy="-110.4065" rx="22.6911" ry="22.6911"/>
<text text-anchor="middle" x="251.4481" y="-106.2065" font-family="Times,serif" font-size="14.00" fill="#000000">CS</text>
</g>
<!-- p0&#45;&gt;p1_2 -->
<g id="edge2" class="edge">
<title>p0-&gt;p1_2</title>
<path fill="none" stroke="#000000" d="M251.4481,-170.7471C251.4481,-162.2997 251.4481,-152.695 251.4481,-143.6718"/>
<polygon fill="#000000" stroke="#000000" points="254.9482,-143.4505 251.4481,-133.4506 247.9482,-143.4506 254.9482,-143.4505"/>
</g>
<!-- p1_3 -->
<g id="node4" class="node">
<title>p1_3</title>
<ellipse fill="none" stroke="#000000" cx="349.4481" cy="-110.4065" rx="23.253" ry="23.253"/>
<text text-anchor="middle" x="349.4481" y="-106.2065" font-family="Times,serif" font-size="14.00" fill="#000000">NS</text>
</g>
<!-- p0&#45;&gt;p1_3 -->
<g id="edge3" class="edge">
<title>p0-&gt;p1_3</title>
<path fill="none" stroke="#000000" d="M270.3435,-178.9338C285.5435,-165.7662 307.0536,-147.1322 323.8075,-132.6186"/>
<polygon fill="#000000" stroke="#000000" points="326.3349,-135.0598 331.6015,-125.8667 321.7515,-129.769 326.3349,-135.0598"/>
</g>
<!-- p1_1_1 -->
<g id="node5" class="node">
<title>p1_1_1</title>
<ellipse fill="none" stroke="#000000" cx="24.4481" cy="-24.9792" rx="24.3963" ry="24.3963"/>
<text text-anchor="middle" x="24.4481" y="-20.7792" font-family="Times,serif" font-size="14.00" fill="#000000">CA</text>
</g>
<!-- p1_1&#45;&gt;p1_1_1 -->
<g id="edge4" class="edge">
<title>p1_1-&gt;p1_1_1</title>
<path fill="none" stroke="#000000" d="M102.7455,-93.9352C87.9844,-80.9353 67.2111,-62.6403 50.7706,-48.1613"/>
<polygon fill="#000000" stroke="#000000" points="52.911,-45.3825 43.0932,-41.3999 48.2846,-50.6357 52.911,-45.3825"/>
</g>
<!-- p1_1_2 -->
<g id="node6" class="node">
<title>p1_1_2</title>
<ellipse fill="none" stroke="#000000" cx="89.4481" cy="-24.9792" rx="22.6911" ry="22.6911"/>
<text text-anchor="middle" x="89.4481" y="-20.7792" font-family="Times,serif" font-size="14.00" fill="#000000">CS</text>
</g>
<!-- p1_1&#45;&gt;p1_1_2 -->
<g id="edge5" class="edge">
<title>p1_1-&gt;p1_1_2</title>
<path fill="none" stroke="#000000" d="M112.7039,-87.0631C109.1139,-77.4793 104.9057,-66.2448 101.063,-55.9865"/>
<polygon fill="#000000" stroke="#000000" points="104.3085,-54.6729 97.523,-46.5361 97.7533,-57.1285 104.3085,-54.6729"/>
</g>
<!-- p1_1_3 -->
<g id="node7" class="node">
<title>p1_1_3</title>
<ellipse fill="none" stroke="#000000" cx="153.4481" cy="-24.9792" rx="23.253" ry="23.253"/>
<text text-anchor="middle" x="153.4481" y="-20.7792" font-family="Times,serif" font-size="14.00" fill="#000000">NS</text>
</g>
<!-- p1_1&#45;&gt;p1_1_3 -->
<g id="edge6" class="edge">
<title>p1_1-&gt;p1_1_3</title>
<path fill="none" stroke="#000000" d="M130.1922,-87.0631C133.6897,-77.7263 137.774,-66.8228 141.5353,-56.7816"/>
<polygon fill="#000000" stroke="#000000" points="144.9249,-57.7101 145.1552,-47.1177 138.3697,-55.2545 144.9249,-57.7101"/>
</g>
<!-- p1_2_1 -->
<g id="node8" class="node">
<title>p1_2_1</title>
<ellipse fill="none" stroke="#000000" cx="219.4481" cy="-24.9792" rx="24.3963" ry="24.3963"/>
<text text-anchor="middle" x="219.4481" y="-20.7792" font-family="Times,serif" font-size="14.00" fill="#000000">CA</text>
</g>
<!-- p1_2&#45;&gt;p1_2_1 -->
<g id="edge7" class="edge">
<title>p1_2-&gt;p1_2_1</title>
<path fill="none" stroke="#000000" d="M243.3731,-88.8496C239.8373,-79.4104 235.6107,-68.127 231.7005,-57.6883"/>
<polygon fill="#000000" stroke="#000000" points="234.8669,-56.1635 228.0814,-48.0267 228.3117,-58.619 234.8669,-56.1635"/>
</g>
<!-- p1_2_2 -->
<g id="node9" class="node">
<title>p1_2_2</title>
<ellipse fill="none" stroke="#000000" cx="284.4481" cy="-24.9792" rx="22.6911" ry="22.6911"/>
<text text-anchor="middle" x="284.4481" y="-20.7792" font-family="Times,serif" font-size="14.00" fill="#000000">CS</text>
</g>
<!-- p1_2&#45;&gt;p1_2_2 -->
<g id="edge8" class="edge">
<title>p1_2-&gt;p1_2_2</title>
<path fill="none" stroke="#000000" d="M259.7754,-88.8496C263.6054,-78.9346 268.2215,-66.9849 272.4198,-56.1168"/>
<polygon fill="#000000" stroke="#000000" points="275.7848,-57.1186 276.1234,-46.5292 269.2551,-54.5962 275.7848,-57.1186"/>
</g>
<!-- p1_3_1 -->
<g id="node10" class="node">
<title>p1_3_1</title>
<ellipse fill="none" stroke="#000000" cx="349.4481" cy="-24.9792" rx="24.3963" ry="24.3963"/>
<text text-anchor="middle" x="349.4481" y="-20.7792" font-family="Times,serif" font-size="14.00" fill="#000000">CA</text>
</g>
<!-- p1_3&#45;&gt;p1_3_1 -->
<g id="edge9" class="edge">
<title>p1_3-&gt;p1_3_1</title>
<path fill="none" stroke="#000000" d="M349.4481,-86.6102C349.4481,-78.3069 349.4481,-68.8083 349.4481,-59.7957"/>
<polygon fill="#000000" stroke="#000000" points="352.9482,-59.5397 349.4481,-49.5397 345.9482,-59.5397 352.9482,-59.5397"/>
</g>
<!-- p1_3_2 -->
<g id="node11" class="node">
<title>p1_3_2</title>
<ellipse fill="none" stroke="#000000" cx="416.4481" cy="-24.9792" rx="24.9584" ry="24.9584"/>
<text text-anchor="middle" x="416.4481" y="-20.7792" font-family="Times,serif" font-size="14.00" fill="#000000">NA</text>
</g>
<!-- p1_3&#45;&gt;p1_3_2 -->
<g id="edge10" class="edge">
<title>p1_3-&gt;p1_3_2</title>
<path fill="none" stroke="#000000" d="M363.9861,-91.87C372.9523,-80.4378 384.6207,-65.5602 394.6759,-52.7395"/>
<polygon fill="#000000" stroke="#000000" points="397.5886,-54.697 401.0059,-44.6684 392.0806,-50.3771 397.5886,-54.697"/>
</g>
</g>
</svg>